<svg id="レイヤー_1" data-name="レイヤー 1" xmlns="http://www.w3.org/2000/svg" viewBox="0 0 700 700"><defs><style>.cls-1{fill:none;}.cls-2{fill:#fff;}</style></defs><rect class="cls-1" width="700" height="700"/><path class="cls-2" d="M515,199.14V345.86L345.86,515H199.14L515,199.14M525,175,175,525H350L525,350V175Z" transform="translate(0)"/><polygon class="cls-2" points="350 350 0 700 0 525 175 350 350 350"/><polygon class="cls-2" points="700 0 350 350 350 175 525 0 700 0"/><polygon class="cls-2" points="350 700 700 350 700 525 525 700 350 700"/><path class="cls-2" d="M325.86,10,10,325.86V179.14L179.14,10H325.86M350,0H175L0,175V350L350,0Z" transform="translate(0)"/></svg>